  0
SECTION
  2
HEADER
  9
$ACADVER
  1
AC1009
  9
$DWGCODEPAGE
  3
ansi_1252
  9
$INSBASE
 10
0.0
 20
0.0
 30
0.0
  9
$EXTMIN
 10
-9.0
 20
-8.0
 30
0.0
  9
$EXTMAX
 10
9.0
 20
8.0
 30
0.0
  9
$LIMMIN
 10
0.0
 20
0.0
  9
$LIMMAX
 10
12.0
 20
9.0
  9
$ORTHOMODE
 70
     0
  9
$REGENMODE
 70
     1
  9
$FILLMODE
 70
     1
  9
$QTEXTMODE
 70
     0
  9
$MIRRTEXT
 70
     1
  9
$DRAGMODE
 70
     2
  9
$LTSCALE
 40
1.0
  9
$OSMODE
 70
    37
  9
$ATTMODE
 70
     1
  9
$TEXTSIZE
 40
0.1377952756
  9
$TRACEWID
 40
0.05
  9
$TEXTSTYLE
  7
STANDARD
  9
$CLAYER
  8
0
  9
$CELTYPE
  6
BYLAYER
  9
$CECOLOR
 62
   256
  9
$DIMSCALE
 40
1.0
  9
$DIMASZ
 40
0.13
  9
$DIMEXO
 40
0.0393700787
  9
$DIMDLI
 40
0.38
  9
$DIMRND
 40
0.0
  9
$DIMDLE
 40
0.0
  9
$DIMEXE
 40
0.0393700787
  9
$DIMTP
 40
0.0
  9
$DIMTM
 40
0.0
  9
$DIMTXT
 40
0.1377952756
  9
$DIMCEN
 40
0.09
  9
$DIMTSZ
 40
0.0
  9
$DIMTOL
 70
     0
  9
$DIMLIM
 70
     0
  9
$DIMTIH
 70
     1
  9
$DIMTOH
 70
     1
  9
$DIMSE1
 70
     0
  9
$DIMSE2
 70
     0
  9
$DIMTAD
 70
     1
  9
$DIMZIN
 70
     1
  9
$DIMBLK
  1

  9
$DIMASO
 70
     1
  9
$DIMSHO
 70
     1
  9
$DIMPOST
  1

  9
$DIMAPOST
  1

  9
$DIMALT
 70
     0
  9
$DIMALTD
 70
     2
  9
$DIMALTF
 40
25.4
  9
$DIMLFAC
 40
1.0
  9
$DIMTOFL
 70
     0
  9
$DIMTVP
 40
0.0
  9
$DIMTIX
 70
     0
  9
$DIMSOXD
 70
     0
  9
$DIMSAH
 70
     0
  9
$DIMBLK1
  1

  9
$DIMBLK2
  1

  9
$DIMSTYLE
  2
STANDARD
  9
$DIMCLRD
 70
     0
  9
$DIMCLRE
 70
     0
  9
$DIMCLRT
 70
     0
  9
$DIMTFAC
 40
1.0
  9
$DIMGAP
 40
0.06
  9
$LUNITS
 70
     2
  9
$LUPREC
 70
     8
  9
$SKETCHINC
 40
0.1
  9
$FILLETRAD
 40
0.5
  9
$AUNITS
 70
     0
  9
$AUPREC
 70
     2
  9
$MENU
  1
.
  9
$ELEVATION
 40
0.0
  9
$PELEVATION
 40
0.0
  9
$THICKNESS
 40
0.0
  9
$LIMCHECK
 70
     0
  9
$CHAMFERA
 40
0.0
  9
$CHAMFERB
 40
0.0
  9
$SKPOLY
 70
     0
  9
$TDCREATE
 40
2458252.803609653
  9
$TDUPDATE
 40
2458252.803651701
  9
$TDINDWG
 40
0.0000000116
  9
$TDUSRTIMER
 40
0.0000000116
  9
$USRTIMER
 70
     1
  9
$ANGBASE
 50
0.0
  9
$ANGDIR
 70
     0
  9
$PDMODE
 70
     0
  9
$PDSIZE
 40
-1.0
  9
$PLINEWID
 40
0.0
  9
$COORDS
 70
     1
  9
$SPLFRAME
 70
     0
  9
$SPLINETYPE
 70
     6
  9
$SPLINESEGS
 70
     8
  9
$ATTDIA
 70
     0
  9
$ATTREQ
 70
     1
  9
$HANDLING
 70
     1
  9
$HANDSEED
  5
22F
  9
$SURFTAB1
 70
     6
  9
$SURFTAB2
 70
     6
  9
$SURFTYPE
 70
     6
  9
$SURFU
 70
     6
  9
$SURFV
 70
     6
  9
$UCSNAME
  2

  9
$UCSORG
 10
0.0
 20
0.0
 30
0.0
  9
$UCSXDIR
 10
1.0
 20
0.0
 30
0.0
  9
$UCSYDIR
 10
0.0
 20
1.0
 30
0.0
  9
$PUCSNAME
  2

  9
$PUCSORG
 10
0.0
 20
0.0
 30
0.0
  9
$PUCSXDIR
 10
1.0
 20
0.0
 30
0.0
  9
$PUCSYDIR
 10
0.0
 20
1.0
 30
0.0
  9
$USERI1
 70
     0
  9
$USERI2
 70
     0
  9
$USERI3
 70
     0
  9
$USERI4
 70
     0
  9
$USERI5
 70
     0
  9
$USERR1
 40
0.0
  9
$USERR2
 40
0.0
  9
$USERR3
 40
0.0
  9
$USERR4
 40
0.0
  9
$USERR5
 40
0.0
  9
$WORLDVIEW
 70
     1
  9
$SHADEDGE
 70
     3
  9
$SHADEDIF
 70
    70
  9
$TILEMODE
 70
     1
  9
$MAXACTVP
 70
    64
  9
$PLIMCHECK
 70
     0
  9
$PEXTMIN
 10
1.0000000000E+20
 20
1.0000000000E+20
 30
1.0000000000E+20
  9
$PEXTMAX
 10
-1.0000000000E+20
 20
-1.0000000000E+20
 30
-1.0000000000E+20
  9
$PLIMMIN
 10
0.0
 20
0.0
  9
$PLIMMAX
 10
12.0
 20
9.0
  9
$UNITMODE
 70
     0
  9
$VISRETAIN
 70
     1
  9
$PLINEGEN
 70
     0
  9
$PSLTSCALE
 70
     1
  0
ENDSEC
  0
SECTION
  2
TABLES
  0
TABLE
  2
VPORT
 70
     1
  0
VPORT
  2
*ACTIVE
 70
     0
 10
0.0
 20
0.0
 11
1.0
 21
1.0
 12
0.0
 22
0.0
 13
0.0
 23
0.0
 14
0.5
 24
0.5
 15
0.5
 25
0.5
 16
0.0
 26
0.0
 36
1.0
 17
0.0
 27
0.0
 37
0.0
 40
16.32
 41
1.125
 42
50.0
 43
0.0
 44
0.0
 50
0.0
 51
0.0
 71
     0
 72
   100
 73
     1
 74
     3
 75
     0
 76
     0
 77
     0
 78
     0
  0
ENDTAB
  0
TABLE
  2
LTYPE
 70
     6
  0
LTYPE
  2
CONTINUOUS
 70
     0
  3
Solid line
 72
    65
 73
     0
 40
0.0
  0
LTYPE
  2
HIDDEN
 70
     0
  3
Hidden __ __ __ __ __ __ __ __ __ __ __ __ __ __
 72
    65
 73
     2
 40
0.075
 49
0.05
 49
-0.025
  0
LTYPE
  2
PHANTOM
 70
     0
  3
Phantom ______  __  __  ______  __  __  ______
 72
    65
 73
     6
 40
0.5
 49
0.25
 49
-0.05
 49
0.05
 49
-0.05
 49
0.05
 49
-0.05
  0
LTYPE
  2
CENTER
 70
     0
  3
Center ____ _ ____ _ ____ _ ____ _ ____ _ ____
 72
    65
 73
     4
 40
0.4
 49
0.25
 49
-0.05
 49
0.05
 49
-0.05
  0
LTYPE
  2
CENTERX2
 70
     0
  3
Center (2x) ________  __  ________  __  _____
 72
    65
 73
     4
 40
0.8
 49
0.5
 49
-0.1
 49
0.1
 49
-0.1
  0
LTYPE
  2
DOT2
 70
     0
  3
Dot (.5x) ........................................
 72
    65
 73
     2
 40
0.025
 49
0.0
 49
-0.025
  0
ENDTAB
  0
TABLE
  2
LAYER
 70
     1
  0
LAYER
  2
0
 70
     0
 62
     7
  6
CONTINUOUS
  0
ENDTAB
  0
TABLE
  2
STYLE
 70
     1
  0
STYLE
  2
STANDARD
 70
     0
 40
0.0
 41
1.0
 50
0.0
 71
     0
 42
0.1377952756
  3
txt
  4

  0
ENDTAB
  0
TABLE
  2
VIEW
 70
     0
  0
ENDTAB
  0
TABLE
  2
UCS
 70
     0
  0
ENDTAB
  0
TABLE
  2
APPID
 70
     1
  0
APPID
  2
ACAD
 70
     0
  0
ENDTAB
  0
TABLE
  2
DIMSTYLE
 70
     1
  0
DIMSTYLE
  2
STANDARD
 70
     0
  3

  4

  5

  6

  7

 40
1.0
 41
0.18
 42
0.0625
 43
0.38
 44
0.18
 45
0.0
 46
0.0
 47
0.0
 48
0.0
140
0.18
141
0.09
142
0.0
143
25.4
144
1.0
145
0.0
146
1.0
147
0.09
 71
     0
 72
     0
 73
     1
 74
     1
 75
     0
 76
     0
 77
     0
 78
     0
170
     0
171
     2
172
     0
173
     0
174
     0
175
     0
176
     0
177
     0
178
     0
  0
ENDTAB
  0
ENDSEC
  0
SECTION
  2
BLOCKS
  0
BLOCK
  8
0
  2
$MODEL_SPACE
 70
     0
 10
0.0
 20
0.0
 30
0.0
  3
$MODEL_SPACE
  1

  0
ENDBLK
  5
21
  8
0
  0
BLOCK
 67
     1
  8
0
  2
$PAPER_SPACE
 70
     0
 10
0.0
 20
0.0
 30
0.0
  3
$PAPER_SPACE
  1

  0
ENDBLK
  5
1D
 67
     1
  8
0
  0
ENDSEC
  0
SECTION
  2
ENTITIES
  0
CIRCLE
  5
73
  8
0
  6
CONTINUOUS
 62
     7
 10
0.0
 20
0.0
 30
0.0
 40
0.2525
  0
CIRCLE
  5
113
  8
0
  6
CONTINUOUS
 62
     7
 10
-1.1907849302
 20
0.6875
 30
0.0
 40
0.1004999999999997
  0
CIRCLE
  5
114
  8
0
  6
CONTINUOUS
 62
     7
 10
1.1907849302
 20
0.6875
 30
0.0
 40
0.1004999999999997
  0
CIRCLE
  5
115
  8
0
  6
CONTINUOUS
 62
     7
 10
0.0
 20
-1.375
 30
0.0
 40
0.1005
  0
CIRCLE
  5
143
  8
0
  6
CONTINUOUS
 62
     7
 10
0.25
 20
3.9962
 30
0.0
 40
0.0747499999999994
  0
CIRCLE
  5
144
  8
0
  6
CONTINUOUS
 62
     7
 10
-6.25
 20
4.8923
 30
0.0
 40
0.0747499999999999
  0
CIRCLE
  5
145
  8
0
  6
CONTINUOUS
 62
     7
 10
-5.75
 20
4.6197
 30
0.0
 40
0.0747500000000008
  0
CIRCLE
  5
146
  8
0
  6
CONTINUOUS
 62
     7
 10
-7.75
 20
4.8923
 30
0.0
 40
0.0747499999999981
  0
CIRCLE
  5
147
  8
0
  6
CONTINUOUS
 62
     7
 10
-6.25
 20
-4.8923
 30
0.0
 40
0.0747499999999999
  0
CIRCLE
  5
148
  8
0
  6
CONTINUOUS
 62
     7
 10
-0.25
 20
-4.2369
 30
0.0
 40
0.0747499999999999
  0
CIRCLE
  5
149
  8
0
  6
CONTINUOUS
 62
     7
 10
-4.25
 20
4.6197
 30
0.0
 40
0.0747500000000008
  0
CIRCLE
  5
14A
  8
0
  6
CONTINUOUS
 62
     7
 10
6.25
 20
-3.4597
 30
0.0
 40
0.0747499999999999
  0
CIRCLE
  5
14B
  8
0
  6
CONTINUOUS
 62
     7
 10
5.75
 20
3.5612
 30
0.0
 40
0.0747500000000008
  0
CIRCLE
  5
14C
  8
0
  6
CONTINUOUS
 62
     7
 10
-7.75
 20
-4.8923
 30
0.0
 40
0.0747499999999981
  0
CIRCLE
  5
14D
  8
0
  6
CONTINUOUS
 62
     7
 10
3.75
 20
-3.7729
 30
0.0
 40
0.0747499999999999
  0
CIRCLE
  5
14E
  8
0
  6
CONTINUOUS
 62
     7
 10
-1.75
 20
-4.2369
 30
0.0
 40
0.0747499999999999
  0
CIRCLE
  5
14F
  8
0
  6
CONTINUOUS
 62
     7
 10
-3.75
 20
4.3587
 30
0.0
 40
0.0747499999999999
  0
CIRCLE
  5
150
  8
0
  6
CONTINUOUS
 62
     7
 10
1.75
 20
3.9962
 30
0.0
 40
0.074749999999999
  0
CIRCLE
  5
151
  8
0
  6
CONTINUOUS
 62
     7
 10
6.25
 20
3.4597
 30
0.0
 40
0.0747499999999994
  0
CIRCLE
  5
152
  8
0
  6
CONTINUOUS
 62
     7
 10
7.75
 20
-3.4597
 30
0.0
 40
0.0747500000000016
  0
CIRCLE
  5
153
  8
0
  6
CONTINUOUS
 62
     7
 10
2.25
 20
-3.7729
 30
0.0
 40
0.0747500000000003
  0
CIRCLE
  5
154
  8
0
  6
CONTINUOUS
 62
     7
 10
-2.25
 20
-4.3587
 30
0.0
 40
0.0747499999999999
  0
CIRCLE
  5
155
  8
0
  6
CONTINUOUS
 62
     7
 10
2.25
 20
3.7729
 30
0.0
 40
0.0747499999999999
  0
CIRCLE
  5
156
  8
0
  6
CONTINUOUS
 62
     7
 10
7.75
 20
3.4597
 30
0.0
 40
0.0747500000000012
  0
CIRCLE
  5
157
  8
0
  6
CONTINUOUS
 62
     7
 10
0.25
 20
-3.9962
 30
0.0
 40
0.074749999999999
  0
CIRCLE
  5
158
  8
0
  6
CONTINUOUS
 62
     7
 10
1.75
 20
-3.9962
 30
0.0
 40
0.074749999999999
  0
CIRCLE
  5
159
  8
0
  6
CONTINUOUS
 62
     7
 10
-3.75
 20
-4.3587
 30
0.0
 40
0.0747499999999999
  0
CIRCLE
  5
15A
  8
0
  6
CONTINUOUS
 62
     7
 10
-1.75
 20
4.2369
 30
0.0
 40
0.074749999999999
  0
CIRCLE
  5
15B
  8
0
  6
CONTINUOUS
 62
     7
 10
3.75
 20
3.7729
 30
0.0
 40
0.0747500000000003
  0
CIRCLE
  5
15C
  8
0
  6
CONTINUOUS
 62
     7
 10
5.75
 20
-3.5612
 30
0.0
 40
0.0747499999999994
  0
CIRCLE
  5
15D
  8
0
  6
CONTINUOUS
 62
     7
 10
-4.25
 20
-4.6197
 30
0.0
 40
0.0747500000000008
  0
CIRCLE
  5
15E
  8
0
  6
CONTINUOUS
 62
     7
 10
-0.25
 20
4.2369
 30
0.0
 40
0.074749999999999
  0
CIRCLE
  5
15F
  8
0
  6
CONTINUOUS
 62
     7
 10
4.25
 20
3.5612
 30
0.0
 40
0.0747499999999999
  0
CIRCLE
  5
160
  8
0
  6
CONTINUOUS
 62
     7
 10
4.25
 20
-3.5612
 30
0.0
 40
0.0747499999999994
  0
CIRCLE
  5
161
  8
0
  6
CONTINUOUS
 62
     7
 10
-2.25
 20
4.3587
 30
0.0
 40
0.0747500000000008
  0
CIRCLE
  5
162
  8
0
  6
CONTINUOUS
 62
     7
 10
-5.75
 20
-4.6197
 30
0.0
 40
0.0747500000000008
  0
LINE
  5
163
  8
0
  6
CONTINUOUS
 62
     7
 10
-7.595
 20
-4.8028107083
 30
0.0
 11
-7.75
 21
-4.7133214166
 31
0.0
  0
LINE
  5
164
  8
0
  6
CONTINUOUS
 62
     7
 10
-7.75
 20
-4.7133214166
 30
0.0
 11
-7.905
 21
-4.8028107083
 31
0.0
  0
LINE
  5
165
  8
0
  6
CONTINUOUS
 62
     7
 10
-7.905
 20
-4.8028107083
 30
0.0
 11
-7.905
 21
-4.9817892917
 31
0.0
  0
LINE
  5
166
  8
0
  6
CONTINUOUS
 62
     7
 10
-7.905
 20
-4.9817892917
 30
0.0
 11
-7.75
 21
-5.0712785834
 31
0.0
  0
LINE
  5
167
  8
0
  6
CONTINUOUS
 62
     7
 10
-7.75
 20
-5.0712785834
 30
0.0
 11
-7.595
 21
-4.9817892917
 31
0.0
  0
LINE
  5
168
  8
0
  6
CONTINUOUS
 62
     7
 10
-7.595
 20
-4.9817892917
 30
0.0
 11
-7.595
 21
-4.8028107083
 31
0.0
  0
LINE
  5
169
  8
0
  6
CONTINUOUS
 62
     7
 10
7.905
 20
-3.3702107083
 30
0.0
 11
7.75
 21
-3.2807214166
 31
0.0
  0
LINE
  5
16A
  8
0
  6
CONTINUOUS
 62
     7
 10
7.75
 20
-3.2807214166
 30
0.0
 11
7.595
 21
-3.3702107083
 31
0.0
  0
LINE
  5
16B
  8
0
  6
CONTINUOUS
 62
     7
 10
7.595
 20
-3.3702107083
 30
0.0
 11
7.595
 21
-3.5491892917
 31
0.0
  0
LINE
  5
16C
  8
0
  6
CONTINUOUS
 62
     7
 10
7.595
 20
-3.5491892917
 30
0.0
 11
7.75
 21
-3.6386785834
 31
0.0
  0
LINE
  5
16D
  8
0
  6
CONTINUOUS
 62
     7
 10
7.75
 20
-3.6386785834
 30
0.0
 11
7.905
 21
-3.5491892917
 31
0.0
  0
LINE
  5
16E
  8
0
  6
CONTINUOUS
 62
     7
 10
7.905
 20
-3.5491892917
 30
0.0
 11
7.905
 21
-3.3702107083
 31
0.0
  0
LINE
  5
16F
  8
0
  6
CONTINUOUS
 62
     7
 10
7.905
 20
3.5491892917
 30
0.0
 11
7.75
 21
3.6386785834
 31
0.0
  0
LINE
  5
170
  8
0
  6
CONTINUOUS
 62
     7
 10
7.75
 20
3.6386785834
 30
0.0
 11
7.595
 21
3.5491892917
 31
0.0
  0
LINE
  5
171
  8
0
  6
CONTINUOUS
 62
     7
 10
7.595
 20
3.5491892917
 30
0.0
 11
7.595
 21
3.3702107083
 31
0.0
  0
LINE
  5
172
  8
0
  6
CONTINUOUS
 62
     7
 10
7.595
 20
3.3702107083
 30
0.0
 11
7.75
 21
3.2807214166
 31
0.0
  0
LINE
  5
173
  8
0
  6
CONTINUOUS
 62
     7
 10
7.75
 20
3.2807214166
 30
0.0
 11
7.905
 21
3.3702107083
 31
0.0
  0
LINE
  5
174
  8
0
  6
CONTINUOUS
 62
     7
 10
7.905
 20
3.3702107083
 30
0.0
 11
7.905
 21
3.5491892917
 31
0.0
  0
LINE
  5
175
  8
0
  6
CONTINUOUS
 62
     7
 10
6.405
 20
3.5491892917
 30
0.0
 11
6.25
 21
3.6386785834
 31
0.0
  0
LINE
  5
176
  8
0
  6
CONTINUOUS
 62
     7
 10
6.25
 20
3.6386785834
 30
0.0
 11
6.095
 21
3.5491892917
 31
0.0
  0
LINE
  5
177
  8
0
  6
CONTINUOUS
 62
     7
 10
6.095
 20
3.5491892917
 30
0.0
 11
6.095
 21
3.3702107083
 31
0.0
  0
LINE
  5
178
  8
0
  6
CONTINUOUS
 62
     7
 10
6.095
 20
3.3702107083
 30
0.0
 11
6.25
 21
3.2807214166
 31
0.0
  0
LINE
  5
179
  8
0
  6
CONTINUOUS
 62
     7
 10
6.25
 20
3.2807214166
 30
0.0
 11
6.405
 21
3.3702107083
 31
0.0
  0
LINE
  5
17A
  8
0
  6
CONTINUOUS
 62
     7
 10
6.405
 20
3.3702107083
 30
0.0
 11
6.405
 21
3.5491892917
 31
0.0
  0
LINE
  5
17B
  8
0
  6
CONTINUOUS
 62
     7
 10
5.905
 20
3.6506892917
 30
0.0
 11
5.75
 21
3.7401785834
 31
0.0
  0
LINE
  5
17C
  8
0
  6
CONTINUOUS
 62
     7
 10
5.75
 20
3.7401785834
 30
0.0
 11
5.595
 21
3.6506892917
 31
0.0
  0
LINE
  5
17D
  8
0
  6
CONTINUOUS
 62
     7
 10
5.595
 20
3.6506892917
 30
0.0
 11
5.595
 21
3.4717107083
 31
0.0
  0
LINE
  5
17E
  8
0
  6
CONTINUOUS
 62
     7
 10
5.595
 20
3.4717107083
 30
0.0
 11
5.75
 21
3.3822214166
 31
0.0
  0
LINE
  5
17F
  8
0
  6
CONTINUOUS
 62
     7
 10
5.75
 20
3.3822214166
 30
0.0
 11
5.905
 21
3.4717107083
 31
0.0
  0
LINE
  5
180
  8
0
  6
CONTINUOUS
 62
     7
 10
5.905
 20
3.4717107083
 30
0.0
 11
5.905
 21
3.6506892917
 31
0.0
  0
LINE
  5
181
  8
0
  6
CONTINUOUS
 62
     7
 10
4.405
 20
3.6506892917
 30
0.0
 11
4.25
 21
3.7401785834
 31
0.0
  0
LINE
  5
182
  8
0
  6
CONTINUOUS
 62
     7
 10
4.25
 20
3.7401785834
 30
0.0
 11
4.095
 21
3.6506892917
 31
0.0
  0
LINE
  5
183
  8
0
  6
CONTINUOUS
 62
     7
 10
4.095
 20
3.6506892917
 30
0.0
 11
4.095
 21
3.4717107083
 31
0.0
  0
LINE
  5
184
  8
0
  6
CONTINUOUS
 62
     7
 10
4.095
 20
3.4717107083
 30
0.0
 11
4.25
 21
3.3822214166
 31
0.0
  0
LINE
  5
185
  8
0
  6
CONTINUOUS
 62
     7
 10
4.25
 20
3.3822214166
 30
0.0
 11
4.405
 21
3.4717107083
 31
0.0
  0
LINE
  5
186
  8
0
  6
CONTINUOUS
 62
     7
 10
4.405
 20
3.4717107083
 30
0.0
 11
4.405
 21
3.6506892917
 31
0.0
  0
LINE
  5
187
  8
0
  6
CONTINUOUS
 62
     7
 10
3.905
 20
3.8623892917
 30
0.0
 11
3.75
 21
3.9518785834
 31
0.0
  0
LINE
  5
188
  8
0
  6
CONTINUOUS
 62
     7
 10
3.75
 20
3.9518785834
 30
0.0
 11
3.595
 21
3.8623892917
 31
0.0
  0
LINE
  5
189
  8
0
  6
CONTINUOUS
 62
     7
 10
3.595
 20
3.8623892917
 30
0.0
 11
3.595
 21
3.6834107083
 31
0.0
  0
LINE
  5
18A
  8
0
  6
CONTINUOUS
 62
     7
 10
3.595
 20
3.6834107083
 30
0.0
 11
3.75
 21
3.5939214166
 31
0.0
  0
LINE
  5
18B
  8
0
  6
CONTINUOUS
 62
     7
 10
3.75
 20
3.5939214166
 30
0.0
 11
3.905
 21
3.6834107083
 31
0.0
  0
LINE
  5
18C
  8
0
  6
CONTINUOUS
 62
     7
 10
3.905
 20
3.6834107083
 30
0.0
 11
3.905
 21
3.8623892917
 31
0.0
  0
LINE
  5
18D
  8
0
  6
CONTINUOUS
 62
     7
 10
2.405
 20
3.8623892917
 30
0.0
 11
2.25
 21
3.9518785834
 31
0.0
  0
LINE
  5
18E
  8
0
  6
CONTINUOUS
 62
     7
 10
2.25
 20
3.9518785834
 30
0.0
 11
2.095
 21
3.8623892917
 31
0.0
  0
LINE
  5
18F
  8
0
  6
CONTINUOUS
 62
     7
 10
2.095
 20
3.8623892917
 30
0.0
 11
2.095
 21
3.6834107083
 31
0.0
  0
LINE
  5
190
  8
0
  6
CONTINUOUS
 62
     7
 10
2.095
 20
3.6834107083
 30
0.0
 11
2.25
 21
3.5939214166
 31
0.0
  0
LINE
  5
191
  8
0
  6
CONTINUOUS
 62
     7
 10
2.25
 20
3.5939214166
 30
0.0
 11
2.405
 21
3.6834107083
 31
0.0
  0
LINE
  5
192
  8
0
  6
CONTINUOUS
 62
     7
 10
2.405
 20
3.6834107083
 30
0.0
 11
2.405
 21
3.8623892917
 31
0.0
  0
LINE
  5
193
  8
0
  6
CONTINUOUS
 62
     7
 10
1.905
 20
4.0856892917
 30
0.0
 11
1.75
 21
4.1751785834
 31
0.0
  0
LINE
  5
194
  8
0
  6
CONTINUOUS
 62
     7
 10
1.75
 20
4.1751785834
 30
0.0
 11
1.595
 21
4.0856892917
 31
0.0
  0
LINE
  5
195
  8
0
  6
CONTINUOUS
 62
     7
 10
1.595
 20
4.0856892917
 30
0.0
 11
1.595
 21
3.9067107083
 31
0.0
  0
LINE
  5
196
  8
0
  6
CONTINUOUS
 62
     7
 10
1.595
 20
3.9067107083
 30
0.0
 11
1.75
 21
3.8172214166
 31
0.0
  0
LINE
  5
197
  8
0
  6
CONTINUOUS
 62
     7
 10
1.75
 20
3.8172214166
 30
0.0
 11
1.905
 21
3.9067107083
 31
0.0
  0
LINE
  5
198
  8
0
  6
CONTINUOUS
 62
     7
 10
1.905
 20
3.9067107083
 30
0.0
 11
1.905
 21
4.0856892917
 31
0.0
  0
LINE
  5
199
  8
0
  6
CONTINUOUS
 62
     7
 10
0.405
 20
4.0856892917
 30
0.0
 11
0.25
 21
4.1751785834
 31
0.0
  0
LINE
  5
19A
  8
0
  6
CONTINUOUS
 62
     7
 10
0.25
 20
4.1751785834
 30
0.0
 11
0.095
 21
4.0856892917
 31
0.0
  0
LINE
  5
19B
  8
0
  6
CONTINUOUS
 62
     7
 10
0.095
 20
4.0856892917
 30
0.0
 11
0.095
 21
3.9067107083
 31
0.0
  0
LINE
  5
19C
  8
0
  6
CONTINUOUS
 62
     7
 10
0.095
 20
3.9067107083
 30
0.0
 11
0.25
 21
3.8172214166
 31
0.0
  0
LINE
  5
19D
  8
0
  6
CONTINUOUS
 62
     7
 10
0.25
 20
3.8172214166
 30
0.0
 11
0.405
 21
3.9067107083
 31
0.0
  0
LINE
  5
19E
  8
0
  6
CONTINUOUS
 62
     7
 10
0.405
 20
3.9067107083
 30
0.0
 11
0.405
 21
4.0856892917
 31
0.0
  0
LINE
  5
19F
  8
0
  6
CONTINUOUS
 62
     7
 10
-0.095
 20
4.3263892917
 30
0.0
 11
-0.25
 21
4.4158785834
 31
0.0
  0
LINE
  5
1A0
  8
0
  6
CONTINUOUS
 62
     7
 10
-0.25
 20
4.4158785834
 30
0.0
 11
-0.405
 21
4.3263892917
 31
0.0
  0
LINE
  5
1A1
  8
0
  6
CONTINUOUS
 62
     7
 10
-0.405
 20
4.3263892917
 30
0.0
 11
-0.405
 21
4.1474107083
 31
0.0
  0
LINE
  5
1A2
  8
0
  6
CONTINUOUS
 62
     7
 10
-0.405
 20
4.1474107083
 30
0.0
 11
-0.25
 21
4.0579214166
 31
0.0
  0
LINE
  5
1A3
  8
0
  6
CONTINUOUS
 62
     7
 10
-0.25
 20
4.0579214166
 30
0.0
 11
-0.095
 21
4.1474107083
 31
0.0
  0
LINE
  5
1A4
  8
0
  6
CONTINUOUS
 62
     7
 10
-0.095
 20
4.1474107083
 30
0.0
 11
-0.095
 21
4.3263892917
 31
0.0
  0
LINE
  5
1A5
  8
0
  6
CONTINUOUS
 62
     7
 10
-1.595
 20
4.3263892917
 30
0.0
 11
-1.75
 21
4.4158785834
 31
0.0
  0
LINE
  5
1A6
  8
0
  6
CONTINUOUS
 62
     7
 10
-1.75
 20
4.4158785834
 30
0.0
 11
-1.905
 21
4.3263892917
 31
0.0
  0
LINE
  5
1A7
  8
0
  6
CONTINUOUS
 62
     7
 10
-1.905
 20
4.3263892917
 30
0.0
 11
-1.905
 21
4.1474107083
 31
0.0
  0
LINE
  5
1A8
  8
0
  6
CONTINUOUS
 62
     7
 10
-1.905
 20
4.1474107083
 30
0.0
 11
-1.75
 21
4.0579214166
 31
0.0
  0
LINE
  5
1A9
  8
0
  6
CONTINUOUS
 62
     7
 10
-1.75
 20
4.0579214166
 30
0.0
 11
-1.595
 21
4.1474107083
 31
0.0
  0
LINE
  5
1AA
  8
0
  6
CONTINUOUS
 62
     7
 10
-1.595
 20
4.1474107083
 30
0.0
 11
-1.595
 21
4.3263892917
 31
0.0
  0
LINE
  5
1AB
  8
0
  6
CONTINUOUS
 62
     7
 10
-2.095
 20
4.4481892917
 30
0.0
 11
-2.25
 21
4.5376785834
 31
0.0
  0
LINE
  5
1AC
  8
0
  6
CONTINUOUS
 62
     7
 10
-2.25
 20
4.5376785834
 30
0.0
 11
-2.405
 21
4.4481892917
 31
0.0
  0
LINE
  5
1AD
  8
0
  6
CONTINUOUS
 62
     7
 10
-2.405
 20
4.4481892917
 30
0.0
 11
-2.405
 21
4.2692107083
 31
0.0
  0
LINE
  5
1AE
  8
0
  6
CONTINUOUS
 62
     7
 10
-2.405
 20
4.2692107083
 30
0.0
 11
-2.25
 21
4.1797214166
 31
0.0
  0
LINE
  5
1AF
  8
0
  6
CONTINUOUS
 62
     7
 10
-2.25
 20
4.1797214166
 30
0.0
 11
-2.095
 21
4.2692107083
 31
0.0
  0
LINE
  5
1B0
  8
0
  6
CONTINUOUS
 62
     7
 10
-2.095
 20
4.2692107083
 30
0.0
 11
-2.095
 21
4.4481892917
 31
0.0
  0
LINE
  5
1B1
  8
0
  6
CONTINUOUS
 62
     7
 10
-3.595
 20
4.4481892917
 30
0.0
 11
-3.75
 21
4.5376785834
 31
0.0
  0
LINE
  5
1B2
  8
0
  6
CONTINUOUS
 62
     7
 10
-3.75
 20
4.5376785834
 30
0.0
 11
-3.905
 21
4.4481892917
 31
0.0
  0
LINE
  5
1B3
  8
0
  6
CONTINUOUS
 62
     7
 10
-3.905
 20
4.4481892917
 30
0.0
 11
-3.905
 21
4.2692107083
 31
0.0
  0
LINE
  5
1B4
  8
0
  6
CONTINUOUS
 62
     7
 10
-3.905
 20
4.2692107083
 30
0.0
 11
-3.75
 21
4.1797214166
 31
0.0
  0
LINE
  5
1B5
  8
0
  6
CONTINUOUS
 62
     7
 10
-3.75
 20
4.1797214166
 30
0.0
 11
-3.595
 21
4.2692107083
 31
0.0
  0
LINE
  5
1B6
  8
0
  6
CONTINUOUS
 62
     7
 10
-3.595
 20
4.2692107083
 30
0.0
 11
-3.595
 21
4.4481892917
 31
0.0
  0
LINE
  5
1B7
  8
0
  6
CONTINUOUS
 62
     7
 10
-4.095
 20
4.7091892917
 30
0.0
 11
-4.25
 21
4.7986785834
 31
0.0
  0
LINE
  5
1B8
  8
0
  6
CONTINUOUS
 62
     7
 10
-4.25
 20
4.7986785834
 30
0.0
 11
-4.405
 21
4.7091892917
 31
0.0
  0
LINE
  5
1B9
  8
0
  6
CONTINUOUS
 62
     7
 10
-4.405
 20
4.7091892917
 30
0.0
 11
-4.405
 21
4.5302107083
 31
0.0
  0
LINE
  5
1BA
  8
0
  6
CONTINUOUS
 62
     7
 10
-4.405
 20
4.5302107083
 30
0.0
 11
-4.25
 21
4.4407214166
 31
0.0
  0
LINE
  5
1BB
  8
0
  6
CONTINUOUS
 62
     7
 10
-4.25
 20
4.4407214166
 30
0.0
 11
-4.095
 21
4.5302107083
 31
0.0
  0
LINE
  5
1BC
  8
0
  6
CONTINUOUS
 62
     7
 10
-5.595
 20
4.7091892917
 30
0.0
 11
-5.75
 21
4.7986785834
 31
0.0
  0
LINE
  5
1BD
  8
0
  6
CONTINUOUS
 62
     7
 10
-5.75
 20
4.7986785834
 30
0.0
 11
-5.905
 21
4.7091892917
 31
0.0
  0
LINE
  5
1BE
  8
0
  6
CONTINUOUS
 62
     7
 10
-5.905
 20
4.7091892917
 30
0.0
 11
-5.905
 21
4.5302107083
 31
0.0
  0
LINE
  5
1BF
  8
0
  6
CONTINUOUS
 62
     7
 10
-4.095
 20
-4.5302107083
 30
0.0
 11
-4.25
 21
-4.4407214166
 31
0.0
  0
LINE
  5
1C0
  8
0
  6
CONTINUOUS
 62
     7
 10
-4.25
 20
-4.4407214166
 30
0.0
 11
-4.405
 21
-4.5302107083
 31
0.0
  0
LINE
  5
1C1
  8
0
  6
CONTINUOUS
 62
     7
 10
-4.405
 20
-4.5302107083
 30
0.0
 11
-4.405
 21
-4.7091892917
 31
0.0
  0
LINE
  5
1C2
  8
0
  6
CONTINUOUS
 62
     7
 10
-4.405
 20
-4.7091892917
 30
0.0
 11
-4.25
 21
-4.7986785834
 31
0.0
  0
LINE
  5
1C3
  8
0
  6
CONTINUOUS
 62
     7
 10
-4.25
 20
-4.7986785834
 30
0.0
 11
-4.095
 21
-4.7091892917
 31
0.0
  0
LINE
  5
1C4
  8
0
  6
CONTINUOUS
 62
     7
 10
-4.095
 20
-4.7091892917
 30
0.0
 11
-4.095
 21
-4.5302107083
 31
0.0
  0
LINE
  5
1C5
  8
0
  6
CONTINUOUS
 62
     7
 10
-3.595
 20
-4.2692107083
 30
0.0
 11
-3.75
 21
-4.1797214166
 31
0.0
  0
LINE
  5
1C6
  8
0
  6
CONTINUOUS
 62
     7
 10
-3.75
 20
-4.1797214166
 30
0.0
 11
-3.905
 21
-4.2692107083
 31
0.0
  0
LINE
  5
1C7
  8
0
  6
CONTINUOUS
 62
     7
 10
-3.905
 20
-4.2692107083
 30
0.0
 11
-3.905
 21
-4.4481892917
 31
0.0
  0
LINE
  5
1C8
  8
0
  6
CONTINUOUS
 62
     7
 10
-3.905
 20
-4.4481892917
 30
0.0
 11
-3.75
 21
-4.5376785834
 31
0.0
  0
LINE
  5
1C9
  8
0
  6
CONTINUOUS
 62
     7
 10
-3.75
 20
-4.5376785834
 30
0.0
 11
-3.595
 21
-4.4481892917
 31
0.0
  0
LINE
  5
1CA
  8
0
  6
CONTINUOUS
 62
     7
 10
-3.595
 20
-4.4481892917
 30
0.0
 11
-3.595
 21
-4.2692107083
 31
0.0
  0
LINE
  5
1CB
  8
0
  6
CONTINUOUS
 62
     7
 10
-2.095
 20
-4.2692107083
 30
0.0
 11
-2.25
 21
-4.1797214166
 31
0.0
  0
LINE
  5
1CC
  8
0
  6
CONTINUOUS
 62
     7
 10
-2.25
 20
-4.1797214166
 30
0.0
 11
-2.405
 21
-4.2692107083
 31
0.0
  0
LINE
  5
1CD
  8
0
  6
CONTINUOUS
 62
     7
 10
-2.405
 20
-4.2692107083
 30
0.0
 11
-2.405
 21
-4.4481892917
 31
0.0
  0
LINE
  5
1CE
  8
0
  6
CONTINUOUS
 62
     7
 10
-2.405
 20
-4.4481892917
 30
0.0
 11
-2.25
 21
-4.5376785834
 31
0.0
  0
LINE
  5
1CF
  8
0
  6
CONTINUOUS
 62
     7
 10
-2.25
 20
-4.5376785834
 30
0.0
 11
-2.095
 21
-4.4481892917
 31
0.0
  0
LINE
  5
1D0
  8
0
  6
CONTINUOUS
 62
     7
 10
-2.095
 20
-4.4481892917
 30
0.0
 11
-2.095
 21
-4.2692107083
 31
0.0
  0
LINE
  5
1D1
  8
0
  6
CONTINUOUS
 62
     7
 10
-1.595
 20
-4.1474107083
 30
0.0
 11
-1.75
 21
-4.0579214166
 31
0.0
  0
LINE
  5
1D2
  8
0
  6
CONTINUOUS
 62
     7
 10
-1.75
 20
-4.0579214166
 30
0.0
 11
-1.905
 21
-4.1474107083
 31
0.0
  0
LINE
  5
1D3
  8
0
  6
CONTINUOUS
 62
     7
 10
-1.905
 20
-4.1474107083
 30
0.0
 11
-1.905
 21
-4.3263892917
 31
0.0
  0
LINE
  5
1D4
  8
0
  6
CONTINUOUS
 62
     7
 10
-1.905
 20
-4.3263892917
 30
0.0
 11
-1.75
 21
-4.4158785834
 31
0.0
  0
LINE
  5
1D5
  8
0
  6
CONTINUOUS
 62
     7
 10
-1.75
 20
-4.4158785834
 30
0.0
 11
-1.595
 21
-4.3263892917
 31
0.0
  0
LINE
  5
1D6
  8
0
  6
CONTINUOUS
 62
     7
 10
-1.595
 20
-4.3263892917
 30
0.0
 11
-1.595
 21
-4.1474107083
 31
0.0
  0
LINE
  5
1D7
  8
0
  6
CONTINUOUS
 62
     7
 10
-0.095
 20
-4.1474107083
 30
0.0
 11
-0.25
 21
-4.0579214166
 31
0.0
  0
LINE
  5
1D8
  8
0
  6
CONTINUOUS
 62
     7
 10
-0.25
 20
-4.0579214166
 30
0.0
 11
-0.405
 21
-4.1474107083
 31
0.0
  0
LINE
  5
1D9
  8
0
  6
CONTINUOUS
 62
     7
 10
-0.405
 20
-4.1474107083
 30
0.0
 11
-0.405
 21
-4.3263892917
 31
0.0
  0
LINE
  5
1DA
  8
0
  6
CONTINUOUS
 62
     7
 10
-0.405
 20
-4.3263892917
 30
0.0
 11
-0.25
 21
-4.4158785834
 31
0.0
  0
LINE
  5
1DB
  8
0
  6
CONTINUOUS
 62
     7
 10
-0.25
 20
-4.4158785834
 30
0.0
 11
-0.095
 21
-4.3263892917
 31
0.0
  0
LINE
  5
1DC
  8
0
  6
CONTINUOUS
 62
     7
 10
-0.095
 20
-4.3263892917
 30
0.0
 11
-0.095
 21
-4.1474107083
 31
0.0
  0
LINE
  5
1DD
  8
0
  6
CONTINUOUS
 62
     7
 10
0.405
 20
-3.9067107083
 30
0.0
 11
0.25
 21
-3.8172214166
 31
0.0
  0
LINE
  5
1DE
  8
0
  6
CONTINUOUS
 62
     7
 10
0.25
 20
-3.8172214166
 30
0.0
 11
0.095
 21
-3.9067107083
 31
0.0
  0
LINE
  5
1DF
  8
0
  6
CONTINUOUS
 62
     7
 10
0.095
 20
-3.9067107083
 30
0.0
 11
0.095
 21
-4.0856892917
 31
0.0
  0
LINE
  5
1E0
  8
0
  6
CONTINUOUS
 62
     7
 10
0.095
 20
-4.0856892917
 30
0.0
 11
0.25
 21
-4.1751785834
 31
0.0
  0
LINE
  5
1E1
  8
0
  6
CONTINUOUS
 62
     7
 10
0.25
 20
-4.1751785834
 30
0.0
 11
0.405
 21
-4.0856892917
 31
0.0
  0
LINE
  5
1E2
  8
0
  6
CONTINUOUS
 62
     7
 10
1.905
 20
-3.9067107083
 30
0.0
 11
1.75
 21
-3.8172214166
 31
0.0
  0
LINE
  5
1E3
  8
0
  6
CONTINUOUS
 62
     7
 10
1.75
 20
-3.8172214166
 30
0.0
 11
1.595
 21
-3.9067107083
 31
0.0
  0
LINE
  5
1E4
  8
0
  6
CONTINUOUS
 62
     7
 10
1.595
 20
-3.9067107083
 30
0.0
 11
1.595
 21
-4.0856892917
 31
0.0
  0
LINE
  5
1E5
  8
0
  6
CONTINUOUS
 62
     7
 10
1.595
 20
-4.0856892917
 30
0.0
 11
1.75
 21
-4.1751785834
 31
0.0
  0
LINE
  5
1E6
  8
0
  6
CONTINUOUS
 62
     7
 10
1.75
 20
-4.1751785834
 30
0.0
 11
1.905
 21
-4.0856892917
 31
0.0
  0
LINE
  5
1E7
  8
0
  6
CONTINUOUS
 62
     7
 10
2.405
 20
-3.6834107083
 30
0.0
 11
2.25
 21
-3.5939214166
 31
0.0
  0
LINE
  5
1E8
  8
0
  6
CONTINUOUS
 62
     7
 10
2.25
 20
-3.5939214166
 30
0.0
 11
2.095
 21
-3.6834107083
 31
0.0
  0
LINE
  5
1E9
  8
0
  6
CONTINUOUS
 62
     7
 10
2.095
 20
-3.6834107083
 30
0.0
 11
2.095
 21
-3.8623892917
 31
0.0
  0
LINE
  5
1EA
  8
0
  6
CONTINUOUS
 62
     7
 10
2.095
 20
-3.8623892917
 30
0.0
 11
2.25
 21
-3.9518785834
 31
0.0
  0
LINE
  5
1EB
  8
0
  6
CONTINUOUS
 62
     7
 10
2.25
 20
-3.9518785834
 30
0.0
 11
2.405
 21
-3.8623892917
 31
0.0
  0
LINE
  5
1EC
  8
0
  6
CONTINUOUS
 62
     7
 10
3.905
 20
-3.6834107083
 30
0.0
 11
3.75
 21
-3.5939214166
 31
0.0
  0
LINE
  5
1ED
  8
0
  6
CONTINUOUS
 62
     7
 10
3.75
 20
-3.5939214166
 30
0.0
 11
3.595
 21
-3.6834107083
 31
0.0
  0
LINE
  5
1EE
  8
0
  6
CONTINUOUS
 62
     7
 10
3.595
 20
-3.6834107083
 30
0.0
 11
3.595
 21
-3.8623892917
 31
0.0
  0
LINE
  5
1EF
  8
0
  6
CONTINUOUS
 62
     7
 10
3.595
 20
-3.8623892917
 30
0.0
 11
3.75
 21
-3.9518785834
 31
0.0
  0
LINE
  5
1F0
  8
0
  6
CONTINUOUS
 62
     7
 10
3.75
 20
-3.9518785834
 30
0.0
 11
3.905
 21
-3.8623892917
 31
0.0
  0
LINE
  5
1F1
  8
0
  6
CONTINUOUS
 62
     7
 10
4.405
 20
-3.4717107083
 30
0.0
 11
4.25
 21
-3.3822214166
 31
0.0
  0
LINE
  5
1F2
  8
0
  6
CONTINUOUS
 62
     7
 10
4.25
 20
-3.3822214166
 30
0.0
 11
4.095
 21
-3.4717107083
 31
0.0
  0
LINE
  5
1F3
  8
0
  6
CONTINUOUS
 62
     7
 10
4.095
 20
-3.4717107083
 30
0.0
 11
4.095
 21
-3.6506892917
 31
0.0
  0
LINE
  5
1F4
  8
0
  6
CONTINUOUS
 62
     7
 10
4.095
 20
-3.6506892917
 30
0.0
 11
4.25
 21
-3.7401785834
 31
0.0
  0
LINE
  5
1F5
  8
0
  6
CONTINUOUS
 62
     7
 10
4.25
 20
-3.7401785834
 30
0.0
 11
4.405
 21
-3.6506892917
 31
0.0
  0
LINE
  5
1F6
  8
0
  6
CONTINUOUS
 62
     7
 10
5.905
 20
-3.4717107083
 30
0.0
 11
5.75
 21
-3.3822214166
 31
0.0
  0
LINE
  5
1F7
  8
0
  6
CONTINUOUS
 62
     7
 10
5.75
 20
-3.3822214166
 30
0.0
 11
5.595
 21
-3.4717107083
 31
0.0
  0
LINE
  5
1F8
  8
0
  6
CONTINUOUS
 62
     7
 10
5.595
 20
-3.4717107083
 30
0.0
 11
5.595
 21
-3.6506892917
 31
0.0
  0
LINE
  5
1F9
  8
0
  6
CONTINUOUS
 62
     7
 10
5.595
 20
-3.6506892917
 30
0.0
 11
5.75
 21
-3.7401785834
 31
0.0
  0
LINE
  5
1FA
  8
0
  6
CONTINUOUS
 62
     7
 10
5.75
 20
-3.7401785834
 30
0.0
 11
5.905
 21
-3.6506892917
 31
0.0
  0
LINE
  5
1FB
  8
0
  6
CONTINUOUS
 62
     7
 10
5.905
 20
-3.6506892917
 30
0.0
 11
5.905
 21
-3.4717107083
 31
0.0
  0
LINE
  5
1FC
  8
0
  6
CONTINUOUS
 62
     7
 10
6.405
 20
-3.3702107083
 30
0.0
 11
6.25
 21
-3.2807214166
 31
0.0
  0
LINE
  5
1FD
  8
0
  6
CONTINUOUS
 62
     7
 10
6.25
 20
-3.2807214166
 30
0.0
 11
6.095
 21
-3.3702107083
 31
0.0
  0
LINE
  5
1FE
  8
0
  6
CONTINUOUS
 62
     7
 10
6.095
 20
-3.3702107083
 30
0.0
 11
6.095
 21
-3.5491892917
 31
0.0
  0
LINE
  5
1FF
  8
0
  6
CONTINUOUS
 62
     7
 10
6.095
 20
-3.5491892917
 30
0.0
 11
6.25
 21
-3.6386785834
 31
0.0
  0
LINE
  5
200
  8
0
  6
CONTINUOUS
 62
     7
 10
6.25
 20
-3.6386785834
 30
0.0
 11
6.405
 21
-3.5491892917
 31
0.0
  0
LINE
  5
201
  8
0
  6
CONTINUOUS
 62
     7
 10
6.405
 20
-3.5491892917
 30
0.0
 11
6.405
 21
-3.3702107083
 31
0.0
  0
LINE
  5
202
  8
0
  6
CONTINUOUS
 62
     7
 10
8.7982068861
 20
6.7896554987
 30
0.0
 11
2.6630575688
 21
7.9953081657
 31
0.0
  0
LINE
  5
203
  8
0
  6
CONTINUOUS
 62
     7
 10
2.6630575688
 20
-7.9953081657
 30
0.0
 11
8.7982068861
 21
-6.7896554987
 31
0.0
  0
LINE
  5
204
  8
0
  6
CONTINUOUS
 62
     7
 10
-4.095
 20
4.5302107083
 30
0.0
 11
-4.095
 21
4.7091892917
 31
0.0
  0
LINE
  5
205
  8
0
  6
CONTINUOUS
 62
     7
 10
-8.75
 20
8.0
 30
0.0
 11
2.6148506828
 21
8.0
 31
0.0
  0
LINE
  5
206
  8
0
  6
CONTINUOUS
 62
     7
 10
-9.0
 20
-7.75
 30
0.0
 11
-9.0
 21
7.75
 31
0.0
  0
LINE
  5
207
  8
0
  6
CONTINUOUS
 62
     7
 10
2.6148506828
 20
-8.0
 30
0.0
 11
-8.75
 21
-8.0
 31
0.0
  0
LINE
  5
208
  8
0
  6
CONTINUOUS
 62
     7
 10
9.0
 20
6.5443473331
 30
0.0
 11
9.0
 21
-6.5443473331
 31
0.0
  0
LINE
  5
209
  8
0
  6
CONTINUOUS
 62
     7
 10
-5.905
 20
4.5302107083
 30
0.0
 11
-5.75
 21
4.4407214166
 31
0.0
  0
LINE
  5
20A
  8
0
  6
CONTINUOUS
 62
     7
 10
-5.75
 20
4.4407214166
 30
0.0
 11
-5.595
 21
4.5302107083
 31
0.0
  0
LINE
  5
20B
  8
0
  6
CONTINUOUS
 62
     7
 10
-5.595
 20
4.5302107083
 30
0.0
 11
-5.595
 21
4.7091892917
 31
0.0
  0
LINE
  5
20C
  8
0
  6
CONTINUOUS
 62
     7
 10
0.405
 20
-4.0856892917
 30
0.0
 11
0.405
 21
-3.9067107083
 31
0.0
  0
LINE
  5
20D
  8
0
  6
CONTINUOUS
 62
     7
 10
-6.095
 20
4.9817892917
 30
0.0
 11
-6.25
 21
5.0712785834
 31
0.0
  0
LINE
  5
20E
  8
0
  6
CONTINUOUS
 62
     7
 10
-6.25
 20
5.0712785834
 30
0.0
 11
-6.405
 21
4.9817892917
 31
0.0
  0
LINE
  5
20F
  8
0
  6
CONTINUOUS
 62
     7
 10
-6.405
 20
4.9817892917
 30
0.0
 11
-6.405
 21
4.8028107083
 31
0.0
  0
LINE
  5
210
  8
0
  6
CONTINUOUS
 62
     7
 10
-6.405
 20
4.8028107083
 30
0.0
 11
-6.25
 21
4.7133214166
 31
0.0
  0
LINE
  5
211
  8
0
  6
CONTINUOUS
 62
     7
 10
-6.25
 20
4.7133214166
 30
0.0
 11
-6.095
 21
4.8028107083
 31
0.0
  0
LINE
  5
212
  8
0
  6
CONTINUOUS
 62
     7
 10
-6.095
 20
4.8028107083
 30
0.0
 11
-6.095
 21
4.9817892917
 31
0.0
  0
LINE
  5
213
  8
0
  6
CONTINUOUS
 62
     7
 10
1.905
 20
-4.0856892917
 30
0.0
 11
1.905
 21
-3.9067107083
 31
0.0
  0
LINE
  5
214
  8
0
  6
CONTINUOUS
 62
     7
 10
-7.595
 20
4.9817892917
 30
0.0
 11
-7.75
 21
5.0712785834
 31
0.0
  0
LINE
  5
215
  8
0
  6
CONTINUOUS
 62
     7
 10
-7.75
 20
5.0712785834
 30
0.0
 11
-7.905
 21
4.9817892917
 31
0.0
  0
LINE
  5
216
  8
0
  6
CONTINUOUS
 62
     7
 10
-7.905
 20
4.9817892917
 30
0.0
 11
-7.905
 21
4.8028107083
 31
0.0
  0
LINE
  5
217
  8
0
  6
CONTINUOUS
 62
     7
 10
-7.905
 20
4.8028107083
 30
0.0
 11
-7.75
 21
4.7133214166
 31
0.0
  0
LINE
  5
218
  8
0
  6
CONTINUOUS
 62
     7
 10
-7.75
 20
4.7133214166
 30
0.0
 11
-7.595
 21
4.8028107083
 31
0.0
  0
LINE
  5
219
  8
0
  6
CONTINUOUS
 62
     7
 10
-7.595
 20
4.8028107083
 30
0.0
 11
-7.595
 21
4.9817892917
 31
0.0
  0
LINE
  5
21A
  8
0
  6
CONTINUOUS
 62
     7
 10
2.405
 20
-3.8623892917
 30
0.0
 11
2.405
 21
-3.6834107083
 31
0.0
  0
LINE
  5
21B
  8
0
  6
CONTINUOUS
 62
     7
 10
-6.095
 20
-4.8028107083
 30
0.0
 11
-6.25
 21
-4.7133214166
 31
0.0
  0
LINE
  5
21C
  8
0
  6
CONTINUOUS
 62
     7
 10
-6.25
 20
-4.7133214166
 30
0.0
 11
-6.405
 21
-4.8028107083
 31
0.0
  0
LINE
  5
21D
  8
0
  6
CONTINUOUS
 62
     7
 10
-6.405
 20
-4.8028107083
 30
0.0
 11
-6.405
 21
-4.9817892917
 31
0.0
  0
LINE
  5
21E
  8
0
  6
CONTINUOUS
 62
     7
 10
-6.405
 20
-4.9817892917
 30
0.0
 11
-6.25
 21
-5.0712785834
 31
0.0
  0
LINE
  5
21F
  8
0
  6
CONTINUOUS
 62
     7
 10
-6.25
 20
-5.0712785834
 30
0.0
 11
-6.095
 21
-4.9817892917
 31
0.0
  0
LINE
  5
220
  8
0
  6
CONTINUOUS
 62
     7
 10
-6.095
 20
-4.9817892917
 30
0.0
 11
-6.095
 21
-4.8028107083
 31
0.0
  0
LINE
  5
221
  8
0
  6
CONTINUOUS
 62
     7
 10
3.905
 20
-3.8623892917
 30
0.0
 11
3.905
 21
-3.6834107083
 31
0.0
  0
LINE
  5
222
  8
0
  6
CONTINUOUS
 62
     7
 10
-5.595
 20
-4.5302107083
 30
0.0
 11
-5.75
 21
-4.4407214166
 31
0.0
  0
LINE
  5
223
  8
0
  6
CONTINUOUS
 62
     7
 10
-5.75
 20
-4.4407214166
 30
0.0
 11
-5.905
 21
-4.5302107083
 31
0.0
  0
LINE
  5
224
  8
0
  6
CONTINUOUS
 62
     7
 10
-5.905
 20
-4.5302107083
 30
0.0
 11
-5.905
 21
-4.7091892917
 31
0.0
  0
LINE
  5
225
  8
0
  6
CONTINUOUS
 62
     7
 10
-5.905
 20
-4.7091892917
 30
0.0
 11
-5.75
 21
-4.7986785834
 31
0.0
  0
LINE
  5
226
  8
0
  6
CONTINUOUS
 62
     7
 10
-5.75
 20
-4.7986785834
 30
0.0
 11
-5.595
 21
-4.7091892917
 31
0.0
  0
LINE
  5
227
  8
0
  6
CONTINUOUS
 62
     7
 10
-5.595
 20
-4.7091892917
 30
0.0
 11
-5.595
 21
-4.5302107083
 31
0.0
  0
LINE
  5
228
  8
0
  6
CONTINUOUS
 62
     7
 10
4.405
 20
-3.6506892917
 30
0.0
 11
4.405
 21
-3.4717107083
 31
0.0
  0
ARC
  5
229
  8
0
  6
CONTINUOUS
 62
     7
 10
-8.75
 20
-7.75
 30
0.0
 40
0.2499999999999991
 50
180.0
 51
270.0
  0
ARC
  5
22A
  8
0
  6
CONTINUOUS
 62
     7
 10
-8.75
 20
7.75
 30
0.0
 40
0.25
 50
90.0
 51
180.0
  0
ARC
  5
22B
  8
0
  6
CONTINUOUS
 62
     7
 10
2.6148506828
 20
7.75
 30
0.0
 40
0.2500000000001092
 50
78.8821573618
 51
90.0
  0
ARC
  5
22C
  8
0
  6
CONTINUOUS
 62
     7
 10
8.75
 20
6.5443473331
 30
0.0
 40
0.2499999999999982
 50
0.0
 51
78.8821573618
  0
ARC
  5
22D
  8
0
  6
CONTINUOUS
 62
     7
 10
8.75
 20
-6.5443473331
 30
0.0
 40
0.2500000000000018
 50
281.1178426382
 51
0.0
  0
ARC
  5
22E
  8
0
  6
CONTINUOUS
 62
     7
 10
2.6148506828
 20
-7.75
 30
0.0
 40
0.2500000000001243
 50
270.0
 51
281.1178426382
  0
ENDSEC
  0
EOF
