  0
SECTION
  2
HEADER
  9
$ACADVER
  1
AC1009
  9
$DWGCODEPAGE
  3
ansi_1252
  9
$INSBASE
 10
0.0
 20
0.0
 30
0.0
  9
$EXTMIN
 10
-9.0
 20
-8.0
 30
0.0
  9
$EXTMAX
 10
9.0
 20
8.0
 30
0.0
  9
$LIMMIN
 10
0.0
 20
0.0
  9
$LIMMAX
 10
12.0
 20
9.0
  9
$ORTHOMODE
 70
     0
  9
$REGENMODE
 70
     1
  9
$FILLMODE
 70
     1
  9
$QTEXTMODE
 70
     0
  9
$MIRRTEXT
 70
     1
  9
$DRAGMODE
 70
     2
  9
$LTSCALE
 40
1.0
  9
$OSMODE
 70
    37
  9
$ATTMODE
 70
     1
  9
$TEXTSIZE
 40
0.1377952756
  9
$TRACEWID
 40
0.05
  9
$TEXTSTYLE
  7
STANDARD
  9
$CLAYER
  8
0
  9
$CELTYPE
  6
BYLAYER
  9
$CECOLOR
 62
   256
  9
$DIMSCALE
 40
1.0
  9
$DIMASZ
 40
0.13
  9
$DIMEXO
 40
0.0393700787
  9
$DIMDLI
 40
0.38
  9
$DIMRND
 40
0.0
  9
$DIMDLE
 40
0.0
  9
$DIMEXE
 40
0.0393700787
  9
$DIMTP
 40
0.0
  9
$DIMTM
 40
0.0
  9
$DIMTXT
 40
0.1377952756
  9
$DIMCEN
 40
0.09
  9
$DIMTSZ
 40
0.0
  9
$DIMTOL
 70
     0
  9
$DIMLIM
 70
     0
  9
$DIMTIH
 70
     1
  9
$DIMTOH
 70
     1
  9
$DIMSE1
 70
     0
  9
$DIMSE2
 70
     0
  9
$DIMTAD
 70
     1
  9
$DIMZIN
 70
     1
  9
$DIMBLK
  1

  9
$DIMASO
 70
     1
  9
$DIMSHO
 70
     1
  9
$DIMPOST
  1

  9
$DIMAPOST
  1

  9
$DIMALT
 70
     0
  9
$DIMALTD
 70
     2
  9
$DIMALTF
 40
25.4
  9
$DIMLFAC
 40
1.0
  9
$DIMTOFL
 70
     0
  9
$DIMTVP
 40
0.0
  9
$DIMTIX
 70
     0
  9
$DIMSOXD
 70
     0
  9
$DIMSAH
 70
     0
  9
$DIMBLK1
  1

  9
$DIMBLK2
  1

  9
$DIMSTYLE
  2
STANDARD
  9
$DIMCLRD
 70
     0
  9
$DIMCLRE
 70
     0
  9
$DIMCLRT
 70
     0
  9
$DIMTFAC
 40
1.0
  9
$DIMGAP
 40
0.06
  9
$LUNITS
 70
     2
  9
$LUPREC
 70
     8
  9
$SKETCHINC
 40
0.1
  9
$FILLETRAD
 40
0.5
  9
$AUNITS
 70
     0
  9
$AUPREC
 70
     2
  9
$MENU
  1
.
  9
$ELEVATION
 40
0.0
  9
$PELEVATION
 40
0.0
  9
$THICKNESS
 40
0.0
  9
$LIMCHECK
 70
     0
  9
$CHAMFERA
 40
0.0
  9
$CHAMFERB
 40
0.0
  9
$SKPOLY
 70
     0
  9
$TDCREATE
 40
2458252.852424572
  9
$TDUPDATE
 40
2458252.85246735
  9
$TDINDWG
 40
0.0000000116
  9
$TDUSRTIMER
 40
0.0000000116
  9
$USRTIMER
 70
     1
  9
$ANGBASE
 50
0.0
  9
$ANGDIR
 70
     0
  9
$PDMODE
 70
     0
  9
$PDSIZE
 40
-1.0
  9
$PLINEWID
 40
0.0
  9
$COORDS
 70
     1
  9
$SPLFRAME
 70
     0
  9
$SPLINETYPE
 70
     6
  9
$SPLINESEGS
 70
     8
  9
$ATTDIA
 70
     0
  9
$ATTREQ
 70
     1
  9
$HANDLING
 70
     1
  9
$HANDSEED
  5
E3
  9
$SURFTAB1
 70
     6
  9
$SURFTAB2
 70
     6
  9
$SURFTYPE
 70
     6
  9
$SURFU
 70
     6
  9
$SURFV
 70
     6
  9
$UCSNAME
  2

  9
$UCSORG
 10
0.0
 20
0.0
 30
0.0
  9
$UCSXDIR
 10
1.0
 20
0.0
 30
0.0
  9
$UCSYDIR
 10
0.0
 20
1.0
 30
0.0
  9
$PUCSNAME
  2

  9
$PUCSORG
 10
0.0
 20
0.0
 30
0.0
  9
$PUCSXDIR
 10
1.0
 20
0.0
 30
0.0
  9
$PUCSYDIR
 10
0.0
 20
1.0
 30
0.0
  9
$USERI1
 70
     0
  9
$USERI2
 70
     0
  9
$USERI3
 70
     0
  9
$USERI4
 70
     0
  9
$USERI5
 70
     0
  9
$USERR1
 40
0.0
  9
$USERR2
 40
0.0
  9
$USERR3
 40
0.0
  9
$USERR4
 40
0.0
  9
$USERR5
 40
0.0
  9
$WORLDVIEW
 70
     1
  9
$SHADEDGE
 70
     3
  9
$SHADEDIF
 70
    70
  9
$TILEMODE
 70
     1
  9
$MAXACTVP
 70
    64
  9
$PLIMCHECK
 70
     0
  9
$PEXTMIN
 10
1.0000000000E+20
 20
1.0000000000E+20
 30
1.0000000000E+20
  9
$PEXTMAX
 10
-1.0000000000E+20
 20
-1.0000000000E+20
 30
-1.0000000000E+20
  9
$PLIMMIN
 10
0.0
 20
0.0
  9
$PLIMMAX
 10
12.0
 20
9.0
  9
$UNITMODE
 70
     0
  9
$VISRETAIN
 70
     1
  9
$PLINEGEN
 70
     0
  9
$PSLTSCALE
 70
     1
  0
ENDSEC
  0
SECTION
  2
TABLES
  0
TABLE
  2
VPORT
 70
     1
  0
VPORT
  2
*ACTIVE
 70
     0
 10
0.0
 20
0.0
 11
1.0
 21
1.0
 12
0.0
 22
0.0
 13
0.0
 23
0.0
 14
0.5
 24
0.5
 15
0.5
 25
0.5
 16
0.0
 26
0.0
 36
1.0
 17
0.0
 27
0.0
 37
0.0
 40
16.32
 41
1.125
 42
50.0
 43
0.0
 44
0.0
 50
0.0
 51
0.0
 71
     0
 72
   100
 73
     1
 74
     3
 75
     0
 76
     0
 77
     0
 78
     0
  0
ENDTAB
  0
TABLE
  2
LTYPE
 70
     6
  0
LTYPE
  2
CONTINUOUS
 70
     0
  3
Solid line
 72
    65
 73
     0
 40
0.0
  0
LTYPE
  2
HIDDEN
 70
     0
  3
Hidden __ __ __ __ __ __ __ __ __ __ __ __ __ __
 72
    65
 73
     2
 40
0.075
 49
0.05
 49
-0.025
  0
LTYPE
  2
PHANTOM
 70
     0
  3
Phantom ______  __  __  ______  __  __  ______
 72
    65
 73
     6
 40
0.5
 49
0.25
 49
-0.05
 49
0.05
 49
-0.05
 49
0.05
 49
-0.05
  0
LTYPE
  2
CENTER
 70
     0
  3
Center ____ _ ____ _ ____ _ ____ _ ____ _ ____
 72
    65
 73
     4
 40
0.4
 49
0.25
 49
-0.05
 49
0.05
 49
-0.05
  0
LTYPE
  2
CENTERX2
 70
     0
  3
Center (2x) ________  __  ________  __  _____
 72
    65
 73
     4
 40
0.8
 49
0.5
 49
-0.1
 49
0.1
 49
-0.1
  0
LTYPE
  2
DOT2
 70
     0
  3
Dot (.5x) ........................................
 72
    65
 73
     2
 40
0.025
 49
0.0
 49
-0.025
  0
ENDTAB
  0
TABLE
  2
LAYER
 70
     1
  0
LAYER
  2
0
 70
     0
 62
     7
  6
CONTINUOUS
  0
ENDTAB
  0
TABLE
  2
STYLE
 70
     1
  0
STYLE
  2
STANDARD
 70
     0
 40
0.0
 41
1.0
 50
0.0
 71
     0
 42
0.1377952756
  3
txt
  4

  0
ENDTAB
  0
TABLE
  2
VIEW
 70
     0
  0
ENDTAB
  0
TABLE
  2
UCS
 70
     0
  0
ENDTAB
  0
TABLE
  2
APPID
 70
     1
  0
APPID
  2
ACAD
 70
     0
  0
ENDTAB
  0
TABLE
  2
DIMSTYLE
 70
     1
  0
DIMSTYLE
  2
STANDARD
 70
     0
  3

  4

  5

  6

  7

 40
1.0
 41
0.18
 42
0.0625
 43
0.38
 44
0.18
 45
0.0
 46
0.0
 47
0.0
 48
0.0
140
0.18
141
0.09
142
0.0
143
25.4
144
1.0
145
0.0
146
1.0
147
0.09
 71
     0
 72
     0
 73
     1
 74
     1
 75
     0
 76
     0
 77
     0
 78
     0
170
     0
171
     2
172
     0
173
     0
174
     0
175
     0
176
     0
177
     0
178
     0
  0
ENDTAB
  0
ENDSEC
  0
SECTION
  2
BLOCKS
  0
BLOCK
  8
0
  2
$MODEL_SPACE
 70
     0
 10
0.0
 20
0.0
 30
0.0
  3
$MODEL_SPACE
  1

  0
ENDBLK
  5
21
  8
0
  0
BLOCK
 67
     1
  8
0
  2
$PAPER_SPACE
 70
     0
 10
0.0
 20
0.0
 30
0.0
  3
$PAPER_SPACE
  1

  0
ENDBLK
  5
1D
 67
     1
  8
0
  0
ENDSEC
  0
SECTION
  2
ENTITIES
  0
CIRCLE
  5
73
  8
0
  6
CONTINUOUS
 62
     7
 10
1.1907849302
 20
-0.6875
 30
0.0
 40
0.1004999999999997
  0
CIRCLE
  5
74
  8
0
  6
CONTINUOUS
 62
     7
 10
-1.1907849302
 20
-0.6875
 30
0.0
 40
0.1004999999999997
  0
CIRCLE
  5
78
  8
0
  6
CONTINUOUS
 62
     7
 10
7.0
 20
6.0
 30
0.0
 40
0.1005000000000003
  0
CIRCLE
  5
79
  8
0
  6
CONTINUOUS
 62
     7
 10
-7.0
 20
-5.1047786646
 30
0.0
 40
0.1005000000000011
  0
CIRCLE
  5
7A
  8
0
  6
CONTINUOUS
 62
     7
 10
5.75
 20
4.6197
 30
0.0
 40
0.2749999999999995
  0
CIRCLE
  5
7B
  8
0
  6
CONTINUOUS
 62
     7
 10
4.25
 20
4.6197
 30
0.0
 40
0.2749999999999995
  0
CIRCLE
  5
7C
  8
0
  6
CONTINUOUS
 62
     7
 10
0.25
 20
4.2369
 30
0.0
 40
0.2749999999999995
  0
CIRCLE
  5
82
  8
0
  6
CONTINUOUS
 62
     7
 10
3.75
 20
4.3587
 30
0.0
 40
0.2749999999999977
  0
CIRCLE
  5
83
  8
0
  6
CONTINUOUS
 62
     7
 10
6.25
 20
4.8923
 30
0.0
 40
0.2749999999999995
  0
CIRCLE
  5
86
  8
0
  6
CONTINUOUS
 62
     7
 10
-0.25
 20
3.9962
 30
0.0
 40
0.2749999999999995
  0
CIRCLE
  5
8C
  8
0
  6
CONTINUOUS
 62
     7
 10
6.25
 20
-4.8923
 30
0.0
 40
0.2749999999999977
  0
CIRCLE
  5
8D
  8
0
  6
CONTINUOUS
 62
     7
 10
7.0
 20
-6.0
 30
0.0
 40
0.1004999999999994
  0
CIRCLE
  5
8E
  8
0
  6
CONTINUOUS
 62
     7
 10
3.75
 20
-4.3587
 30
0.0
 40
0.2749999999999986
  0
CIRCLE
  5
8F
  8
0
  6
CONTINUOUS
 62
     7
 10
-7.0
 20
5.1047786646
 30
0.0
 40
0.1005000000000011
  0
CIRCLE
  5
90
  8
0
  6
CONTINUOUS
 62
     7
 10
4.25
 20
-4.6197
 30
0.0
 40
0.2749999999999995
  0
CIRCLE
  5
95
  8
0
  6
CONTINUOUS
 62
     7
 10
-0.25
 20
-3.9962
 30
0.0
 40
0.2749999999999999
  0
CIRCLE
  5
97
  8
0
  6
CONTINUOUS
 62
     7
 10
0.25
 20
-4.2369
 30
0.0
 40
0.2749999999999999
  0
CIRCLE
  5
98
  8
0
  6
CONTINUOUS
 62
     7
 10
0.0
 20
1.375
 30
0.0
 40
0.1005
  0
CIRCLE
  5
9B
  8
0
  6
CONTINUOUS
 62
     7
 10
0.0
 20
0.0
 30
0.0
 40
0.2525
  0
CIRCLE
  5
A2
  8
0
  6
CONTINUOUS
 62
     7
 10
-7.75
 20
-3.4597
 30
0.0
 40
0.2750000000000004
  0
CIRCLE
  5
A3
  8
0
  6
CONTINUOUS
 62
     7
 10
7.75
 20
-4.8923
 30
0.0
 40
0.2749999999999995
  0
CIRCLE
  5
A4
  8
0
  6
CONTINUOUS
 62
     7
 10
-7.75
 20
3.4597
 30
0.0
 40
0.274999999999999
  0
CIRCLE
  5
A5
  8
0
  6
CONTINUOUS
 62
     7
 10
5.75
 20
-4.6197
 30
0.0
 40
0.2749999999999977
  0
CIRCLE
  5
A6
  8
0
  6
CONTINUOUS
 62
     7
 10
7.75
 20
4.8923
 30
0.0
 40
0.2749999999999995
  0
CIRCLE
  5
A7
  8
0
  6
CONTINUOUS
 62
     7
 10
-7.75
 20
3.4597
 30
0.0
 40
0.0747500000000016
  0
CIRCLE
  5
A8
  8
0
  6
CONTINUOUS
 62
     7
 10
-7.75
 20
-3.4597
 30
0.0
 40
0.0747500000000012
  0
CIRCLE
  5
A9
  8
0
  6
CONTINUOUS
 62
     7
 10
-3.75
 20
-3.7729
 30
0.0
 40
0.0747500000000003
  0
CIRCLE
  5
AA
  8
0
  6
CONTINUOUS
 62
     7
 10
-4.25
 20
-3.5612
 30
0.0
 40
0.0747499999999999
  0
CIRCLE
  5
AB
  8
0
  6
CONTINUOUS
 62
     7
 10
6.25
 20
-4.8923
 30
0.0
 40
0.0747499999999999
  0
CIRCLE
  5
AC
  8
0
  6
CONTINUOUS
 62
     7
 10
5.75
 20
-4.6197
 30
0.0
 40
0.0747500000000008
  0
CIRCLE
  5
AD
  8
0
  6
CONTINUOUS
 62
     7
 10
7.75
 20
-4.8923
 30
0.0
 40
0.0747499999999981
  0
CIRCLE
  5
AE
  8
0
  6
CONTINUOUS
 62
     7
 10
5.75
 20
4.6197
 30
0.0
 40
0.0747500000000008
  0
CIRCLE
  5
AF
  8
0
  6
CONTINUOUS
 62
     7
 10
-6.25
 20
-3.4597
 30
0.0
 40
0.0747499999999994
  0
CIRCLE
  5
B0
  8
0
  6
CONTINUOUS
 62
     7
 10
-5.75
 20
-3.5612
 30
0.0
 40
0.0747500000000008
  0
CIRCLE
  5
B1
  8
0
  6
CONTINUOUS
 62
     7
 10
6.25
 20
4.8923
 30
0.0
 40
0.0747499999999999
  0
CIRCLE
  5
B2
  8
0
  6
CONTINUOUS
 62
     7
 10
3.75
 20
4.3587
 30
0.0
 40
0.0747499999999999
  0
CIRCLE
  5
B3
  8
0
  6
CONTINUOUS
 62
     7
 10
-3.75
 20
3.7729
 30
0.0
 40
0.0747499999999999
  0
CIRCLE
  5
B4
  8
0
  6
CONTINUOUS
 62
     7
 10
-4.25
 20
3.5612
 30
0.0
 40
0.0747499999999994
  0
CIRCLE
  5
B5
  8
0
  6
CONTINUOUS
 62
     7
 10
4.25
 20
4.6197
 30
0.0
 40
0.0747500000000008
  0
CIRCLE
  5
B6
  8
0
  6
CONTINUOUS
 62
     7
 10
-1.75
 20
-3.9962
 30
0.0
 40
0.074749999999999
  0
CIRCLE
  5
B7
  8
0
  6
CONTINUOUS
 62
     7
 10
-2.25
 20
-3.7729
 30
0.0
 40
0.0747499999999999
  0
CIRCLE
  5
B8
  8
0
  6
CONTINUOUS
 62
     7
 10
2.25
 20
4.3587
 30
0.0
 40
0.0747499999999999
  0
CIRCLE
  5
B9
  8
0
  6
CONTINUOUS
 62
     7
 10
1.75
 20
4.2369
 30
0.0
 40
0.0747499999999999
  0
CIRCLE
  5
BA
  8
0
  6
CONTINUOUS
 62
     7
 10
0.25
 20
-4.2369
 30
0.0
 40
0.074749999999999
  0
CIRCLE
  5
BB
  8
0
  6
CONTINUOUS
 62
     7
 10
-0.25
 20
3.9962
 30
0.0
 40
0.074749999999999
  0
CIRCLE
  5
BC
  8
0
  6
CONTINUOUS
 62
     7
 10
-0.25
 20
-3.9962
 30
0.0
 40
0.0747499999999994
  0
CIRCLE
  5
BD
  8
0
  6
CONTINUOUS
 62
     7
 10
0.25
 20
4.2369
 30
0.0
 40
0.0747499999999999
  0
CIRCLE
  5
BE
  8
0
  6
CONTINUOUS
 62
     7
 10
2.25
 20
-4.3587
 30
0.0
 40
0.0747500000000008
  0
CIRCLE
  5
BF
  8
0
  6
CONTINUOUS
 62
     7
 10
1.75
 20
-4.2369
 30
0.0
 40
0.074749999999999
  0
CIRCLE
  5
C0
  8
0
  6
CONTINUOUS
 62
     7
 10
-1.75
 20
3.9962
 30
0.0
 40
0.074749999999999
  0
CIRCLE
  5
C1
  8
0
  6
CONTINUOUS
 62
     7
 10
-2.25
 20
3.7729
 30
0.0
 40
0.0747500000000003
  0
CIRCLE
  5
C2
  8
0
  6
CONTINUOUS
 62
     7
 10
4.25
 20
-4.6197
 30
0.0
 40
0.0747500000000008
  0
CIRCLE
  5
C3
  8
0
  6
CONTINUOUS
 62
     7
 10
-5.75
 20
3.5612
 30
0.0
 40
0.0747499999999994
  0
CIRCLE
  5
C4
  8
0
  6
CONTINUOUS
 62
     7
 10
-6.25
 20
3.4597
 30
0.0
 40
0.0747499999999999
  0
CIRCLE
  5
C5
  8
0
  6
CONTINUOUS
 62
     7
 10
3.75
 20
-4.3587
 30
0.0
 40
0.0747499999999999
  0
CIRCLE
  5
C6
  8
0
  6
CONTINUOUS
 62
     7
 10
7.75
 20
4.8923
 30
0.0
 40
0.0747499999999981
  0
LINE
  5
C7
  8
0
  6
CONTINUOUS
 62
     7
 10
9.0
 20
7.75
 30
0.0
 11
9.0
 21
-7.75
 31
0.0
  0
LINE
  5
C8
  8
0
  6
CONTINUOUS
 62
     7
 10
-2.6148506828
 20
8.0
 30
0.0
 11
8.75
 21
8.0
 31
0.0
  0
LINE
  5
C9
  8
0
  6
CONTINUOUS
 62
     7
 10
-2.6630575688
 20
7.9953081657
 30
0.0
 11
-8.7982068861
 21
6.7896554987
 31
0.0
  0
LINE
  5
CA
  8
0
  6
CONTINUOUS
 62
     7
 10
-8.7982068861
 20
-6.7896554987
 30
0.0
 11
-2.6630575688
 21
-7.9953081657
 31
0.0
  0
LINE
  5
CB
  8
0
  6
CONTINUOUS
 62
     7
 10
8.75
 20
-8.0
 30
0.0
 11
-2.6148506828
 21
-8.0
 31
0.0
  0
LINE
  5
CC
  8
0
  6
CONTINUOUS
 62
     7
 10
-9.0
 20
-6.5443473331
 30
0.0
 11
-9.0
 21
6.5443473331
 31
0.0
  0
ARC
  5
CD
  8
0
  6
CONTINUOUS
 62
     7
 10
8.75
 20
7.75
 30
0.0
 40
0.2499999999999991
 50
0.0
 51
90.0
  0
ARC
  5
CE
  8
0
  6
CONTINUOUS
 62
     7
 10
8.75
 20
-7.75
 30
0.0
 40
0.25
 50
270.0
 51
0.0
  0
ARC
  5
CF
  8
0
  6
CONTINUOUS
 62
     7
 10
-8.75
 20
-6.5443473331
 30
0.0
 40
0.2499999999999982
 50
180.0
 51
258.8821573618
  0
ARC
  5
D0
  8
0
  6
CONTINUOUS
 62
     7
 10
-1.75
 20
3.9962
 30
0.0
 40
0.2750000000000019
 50
29.4229761882
 51
18.7081014651
  0
ARC
  5
D1
  8
0
  6
CONTINUOUS
 62
     7
 10
-2.25
 20
3.7729
 30
0.0
 40
0.2750000000000003
 50
209.4229761882
 51
198.7081014651
  0
ARC
  5
D2
  8
0
  6
CONTINUOUS
 62
     7
 10
-3.75
 20
3.7729
 30
0.0
 40
0.2749999999999995
 50
212.1181142258
 51
193.7774842588
  0
ARC
  5
D3
  8
0
  6
CONTINUOUS
 62
     7
 10
-4.25
 20
3.5612
 30
0.0
 40
0.2749999999999986
 50
32.1181142258
 51
13.7774842588
  0
ARC
  5
D4
  8
0
  6
CONTINUOUS
 62
     7
 10
-6.25
 20
3.4597
 30
0.0
 40
0.2749999999999991
 50
33.4062876043
 51
349.5439384091
  0
ARC
  5
D5
  8
0
  6
CONTINUOUS
 62
     7
 10
-2.6148506828
 20
7.75
 30
0.0
 40
0.2500000000001243
 50
90.0
 51
101.1178426382
  0
ARC
  5
D6
  8
0
  6
CONTINUOUS
 62
     7
 10
2.25
 20
4.3587
 30
0.0
 40
0.2749999999999989
 50
214.353073484
 51
173.0281352151
  0
ARC
  5
D7
  8
0
  6
CONTINUOUS
 62
     7
 10
1.75
 20
4.2369
 30
0.0
 40
0.2749999999999992
 50
34.353073484
 51
353.0281352151
  0
ARC
  5
D8
  8
0
  6
CONTINUOUS
 62
     7
 10
-5.75
 20
3.5612
 30
0.0
 40
0.275
 50
213.4062876043
 51
169.5439384091
  0
ARC
  5
D9
  8
0
  6
CONTINUOUS
 62
     7
 10
-8.75
 20
6.5443473331
 30
0.0
 40
0.2500000000000028
 50
101.1178426382
 51
180.0
  0
ARC
  5
DA
  8
0
  6
CONTINUOUS
 62
     7
 10
1.75
 20
-4.2369
 30
0.0
 40
0.2749999999999994
 50
6.9718647849
 51
325.646926516
  0
ARC
  5
DB
  8
0
  6
CONTINUOUS
 62
     7
 10
2.25
 20
-4.3587
 30
0.0
 40
0.274999999999999
 50
186.9718647849
 51
145.646926516
  0
ARC
  5
DC
  8
0
  6
CONTINUOUS
 62
     7
 10
-2.6148506828
 20
-7.75
 30
0.0
 40
0.2500000000001094
 50
258.8821573618
 51
270.0
  0
ARC
  5
DD
  8
0
  6
CONTINUOUS
 62
     7
 10
-2.25
 20
-3.7729
 30
0.0
 40
0.2750000000000014
 50
161.2918985349
 51
150.5770238118
  0
ARC
  5
DE
  8
0
  6
CONTINUOUS
 62
     7
 10
-1.75
 20
-3.9962
 30
0.0
 40
0.2749999999999989
 50
341.2918985349
 51
330.5770238118
  0
ARC
  5
DF
  8
0
  6
CONTINUOUS
 62
     7
 10
-4.25
 20
-3.5612
 30
0.0
 40
0.275
 50
346.2225157412
 51
327.8818857742
  0
ARC
  5
E0
  8
0
  6
CONTINUOUS
 62
     7
 10
-3.75
 20
-3.7729
 30
0.0
 40
0.2749999999999985
 50
166.2225157412
 51
147.8818857742
  0
ARC
  5
E1
  8
0
  6
CONTINUOUS
 62
     7
 10
-6.25
 20
-3.4597
 30
0.0
 40
0.2749999999999997
 50
10.4560615909
 51
326.5937123957
  0
ARC
  5
E2
  8
0
  6
CONTINUOUS
 62
     7
 10
-5.75
 20
-3.5612
 30
0.0
 40
0.2749999999999997
 50
190.4560615909
 51
146.5937123957
  0
ENDSEC
  0
EOF
